<?xml version="1.0" encoding="utf-8"?>
<!-- Generator: Adobe Illustrator 24.3.0, SVG Export Plug-In . SVG Version: 6.00 Build 0)  -->
<svg version="1.1" xmlns="http://www.w3.org/2000/svg" xmlns:xlink="http://www.w3.org/1999/xlink" x="0px" y="0px"
	 viewBox="0 0 197.2 44" style="enable-background:new 0 0 197.2 44;" xml:space="preserve">
<style type="text/css">
	.st0{fill:#FFFFFF;}
	.st1{fill-rule:evenodd;clip-rule:evenodd;fill:#FFFFFF;}
	.st2{clip-path:url(#SVGID_2_);fill-rule:evenodd;clip-rule:evenodd;fill:#428DFC;}
	.st3{clip-path:url(#SVGID_2_);fill-rule:evenodd;clip-rule:evenodd;fill:#E94A47;}
</style>
<g id="Layer_1">
	<g>
		<g>
			<path class="st0" d="M55.2,22.3h5.1v-3.1h2.9v15.4h-2.4v4.3h10.1v-4.3h-2.5V19.2h3.3v3.1h5.1V15H55.2V22.3z M96.4,28.8
				c0-2.1-0.5-3.7-1.5-4.8c-1-1.1-2.5-1.6-4.5-1.6c-0.9,0-1.7,0.2-2.4,0.5c-0.7,0.3-1.4,0.8-2,1.3v-9.7h-7.3v4.3h2.5v15.9h-2.5v4.3
				h9.7v-4.3H86v-6.1c0.6-0.5,1.1-0.9,1.7-1.1c0.6-0.3,1.1-0.4,1.5-0.4c0.7,0,1.3,0.3,1.7,0.8c0.4,0.5,0.7,1.2,0.7,2.2v9.1h7.2v-4.3
				h-2.4V28.8z M116.5,26.9c-0.4-1-0.9-1.9-1.6-2.6c-0.7-0.8-1.5-1.3-2.5-1.8c-1-0.4-2.1-0.6-3.4-0.6c-1.3,0-2.4,0.2-3.5,0.7
				c-1,0.5-1.9,1.1-2.7,1.9c-0.7,0.8-1.3,1.7-1.7,2.7c-0.4,1-0.6,2.2-0.6,3.4c0,1.2,0.2,2.3,0.6,3.4c0.4,1.1,1,2,1.7,2.8
				c0.7,0.8,1.7,1.4,2.8,1.9s2.3,0.7,3.7,0.7c0.7,0,1.4,0,2-0.1c0.6-0.1,1.1-0.2,1.6-0.4c0.5-0.2,1-0.4,1.5-0.6
				c0.5-0.3,1-0.6,1.6-0.9l-1.7-3.2c-0.4,0.1-0.8,0.3-1.1,0.4c-0.4,0.1-0.8,0.2-1.2,0.3c-0.4,0.1-0.8,0.2-1.2,0.2
				c-0.4,0.1-0.9,0.1-1.3,0.1c-0.5,0-0.9-0.1-1.4-0.2c-0.5-0.1-0.9-0.3-1.2-0.5c-0.4-0.2-0.7-0.5-1-0.9c-0.3-0.4-0.5-0.8-0.6-1.2
				l0-0.5h11.9c0-0.3,0-0.5,0-0.8c0-0.3,0-0.5-0.1-0.8C117,29,116.8,28,116.5,26.9z M105.3,28.5c0.1-0.3,0.2-0.7,0.4-1
				c0.2-0.3,0.4-0.6,0.7-0.8c0.3-0.2,0.6-0.4,1-0.6c0.4-0.1,0.9-0.2,1.5-0.2c0.6,0,1,0.1,1.4,0.2c0.4,0.1,0.7,0.3,0.9,0.6
				c0.2,0.2,0.4,0.5,0.6,0.8c0.1,0.3,0.2,0.7,0.3,1H105.3z M131.6,30.5h4.5c-0.4,1.1-1,2-1.8,2.7c-0.8,0.7-1.8,1-2.9,1
				c-0.9,0-1.7-0.2-2.4-0.6c-0.8-0.4-1.4-0.9-2-1.6c-0.6-0.7-1-1.5-1.3-2.3c-0.3-0.9-0.4-1.8-0.4-2.7c0-1,0.2-1.9,0.5-2.8
				c0.3-0.9,0.7-1.7,1.3-2.4c0.5-0.7,1.2-1.2,1.9-1.6c0.7-0.4,1.6-0.6,2.4-0.6c0.9,0,1.6,0.1,2.1,0.3c0.5,0.2,1,0.5,1.4,0.8
				c0.4,0.3,0.9,0.9,1.3,1.6h4.8V17h-3.5c-1-0.9-2-1.5-2.9-1.9c-0.9-0.3-2-0.5-3.2-0.5c-1.1,0-2.1,0.1-3.1,0.4
				c-1,0.3-1.9,0.7-2.7,1.2c-0.8,0.5-1.6,1.2-2.3,1.9c-0.7,0.8-1.3,1.6-1.8,2.5c-0.5,0.9-0.9,1.9-1.1,2.9c-0.3,1-0.4,2.1-0.4,3.3
				c0,1.8,0.3,3.5,1,5.1c0.6,1.5,1.5,2.9,2.7,4.1c0.5,0.5,1,0.9,1.6,1.3c0.6,0.4,1.2,0.7,1.8,0.9c0.6,0.3,1.2,0.5,1.9,0.6
				c0.6,0.1,1.3,0.2,1.9,0.2c1.3,0,2.3-0.1,3.1-0.5c0.8-0.3,1.5-0.8,2.1-1.3c0.6-0.5,1.2-1.4,1.9-2.5v4.1h4.7V26.2h-11V30.5z
				 M162.1,26.9c-0.4-1-0.9-1.9-1.6-2.6c-0.7-0.8-1.5-1.3-2.5-1.8c-1-0.4-2.1-0.6-3.4-0.6c-1.3,0-2.4,0.2-3.5,0.7
				c-1,0.5-1.9,1.1-2.7,1.9c-0.7,0.8-1.3,1.7-1.7,2.7c-0.4,1-0.6,2.2-0.6,3.4c0,1.2,0.2,2.3,0.6,3.4c0.4,1.1,1,2,1.7,2.8
				c0.7,0.8,1.7,1.4,2.8,1.9s2.3,0.7,3.7,0.7c0.7,0,1.4,0,2-0.1c0.6-0.1,1.1-0.2,1.6-0.4c0.5-0.2,1-0.4,1.5-0.6
				c0.5-0.3,1-0.6,1.6-0.9l-1.7-3.2c-0.4,0.1-0.8,0.3-1.1,0.4c-0.4,0.1-0.8,0.2-1.2,0.3c-0.4,0.1-0.8,0.2-1.2,0.2
				c-0.4,0.1-0.9,0.1-1.3,0.1c-0.5,0-0.9-0.1-1.4-0.2c-0.5-0.1-0.9-0.3-1.2-0.5c-0.4-0.2-0.7-0.5-1-0.9c-0.3-0.4-0.5-0.8-0.6-1.2
				l0-0.5h11.9c0-0.3,0-0.5,0-0.8c0-0.3,0-0.5-0.1-0.8C162.6,29,162.4,28,162.1,26.9z M150.9,28.5c0.1-0.3,0.2-0.7,0.4-1
				c0.2-0.3,0.4-0.6,0.7-0.8c0.3-0.2,0.6-0.4,1-0.6c0.4-0.1,0.9-0.2,1.5-0.2c0.6,0,1,0.1,1.4,0.2c0.4,0.1,0.7,0.3,0.9,0.6
				c0.2,0.2,0.4,0.5,0.6,0.8c0.1,0.3,0.2,0.7,0.3,1H150.9z M194.9,34.6v-5.8c0-2.1-0.5-3.7-1.6-4.8c-1.1-1.1-2.6-1.7-4.6-1.7
				c-0.6,0-1.1,0.1-1.6,0.2c-0.5,0.1-1,0.3-1.5,0.6c-0.5,0.2-0.9,0.5-1.4,0.8c-0.4,0.3-0.8,0.7-1.2,1.1c-0.5-0.9-1.2-1.6-2.1-2
				c-0.9-0.4-1.9-0.7-3.2-0.7c-0.9,0-1.7,0.2-2.6,0.5c-0.8,0.3-1.6,0.7-2.2,1.3v-1.4h-7.4v4.3h2.4v7.7h-2.4v4.3h10v-4.3H173v-6.3
				c0.5-0.7,1-1.1,1.6-1.3c0.6-0.2,1.1-0.4,1.6-0.3c0.4,0,0.8,0.1,1.1,0.2c0.3,0.1,0.6,0.3,0.9,0.6c0.2,0.3,0.4,0.6,0.6,0.9
				c0.1,0.4,0.2,0.8,0.2,1.2v9.4h7.4v-4.3H184v-5.8c0-0.1,0-0.2,0-0.4c0.5-0.7,1-1.2,1.5-1.4c0.5-0.3,1.1-0.4,1.6-0.4
				c0.8,0,1.5,0.3,2,0.8c0.5,0.5,0.7,1.2,0.7,2.2v9.4h7.4v-4.3H194.9z"/>
		</g>
	</g>
	<path class="st1" d="M37.2,44H8.8L0,16.8L23,0l23,16.8L37.2,44z M16.3,30.5l-2.8,9h15.2L16.3,30.5z M9.5,20l4.6,3.3l1.1-3.3H9.5z
		 M16.5,15.4l2-6.7l-9,6.7H16.5z M40.2,20H19.8l-1.9,6.1l16.6,12.1L40.2,20z M12.5,27.8l-5.7-4.1l3.5,10.8L12.5,27.8z M36.4,15.4
		L24.2,6.5l-3,8.8H36.4z"/>
</g>
<g id="Слой_2">
	<g>
		<defs>
			<path id="SVGID_1_" d="M37.2,44H8.8L0,16.8L23,0l23,16.8L37.2,44z M16.3,30.5l-2.8,9h15.2L16.3,30.5z M9.5,20l4.6,3.3l1.1-3.3
				H9.5z M16.5,15.4l2-6.7l-9,6.7H16.5z M40.2,20H19.8l-1.9,6.1l16.6,12.1L40.2,20z M12.5,27.8l-5.7-4.1l3.5,10.8L12.5,27.8z
				 M36.4,15.4L24.2,6.5l-3,8.8H36.4z"/>
		</defs>
		<clipPath id="SVGID_2_">
			<use xlink:href="#SVGID_1_"  style="overflow:visible;"/>
		</clipPath>
		<path class="st2" d="M78.7-47c39.5,0,71.5,19.9,71.5,44.5c0,24.6-32,44.5-71.5,44.5C39.2,42,7.2,22.1,7.2-2.5
			C7.2-27,39.2-47,78.7-47z"/>
		<path class="st3" d="M63.1,15.1c24.3,0,44,12.3,44,27.4c0,15.1-19.7,27.4-44,27.4c-24.3,0-44-12.3-44-27.4
			C19.1,27.4,38.8,15.1,63.1,15.1z"/>
	</g>
</g>
</svg>
